# xmcd
#
# Track frame offsets:
#	150
#	24011
#	36987
#	50400
#	57351
#	61981
#	66910
#	72466
#	77041
#	81198
#	85344
#	91827
#	96574
#	100536
#	114630
#	139521
#	158913
#	173523
#	184393
#	200932
#	207053
#	212027
#	216261
#	221651
#	226367
#	230758
#	236659
#	243314
#	248471
#	253295
#
# Disc length: 3447 seconds
#
# Revision: 0
# Processed by: cddbd v1.5.2PL0 Copyright (c) Steve Scherf et al.
# Submitted via: EasyCDDAExtractor 10.2.0.1
#
DISCID=b30d751e
DTITLE=Van Morrison - The Great Van Morrison [cd2]
DYEAR=2001
DGENRE=Blues
TTITLE0=Madame George
TTITLE1=Send Your Mind
TTITLE2=The Smile You Smile
TTITLE3=Ring Worm
TTITLE4=Savoy Hollywood
TTITLE5=Freaky If You Got This Far
TTITLE6=Up Your Mind
TTITLE7=Thirty-Two
TTITLE8=All The Bits
TTITLE9=You Say France And I Whistle
TTITLE10=Blow In Your Nose
TTITLE11=Nose In Your Blow
TTITLE12=La Mambo
TTITLE13=Ro Ro Rosey
TTITLE14=The B'ack Room
TTITLE15=Joe Harper Saturday Morning
TTITLE16=Chick-A-Boom
TTITLE17=I Love You (The Smile You Smile)
TTITLE18=Brown Eyed Girl (Alternative Version)
TTITLE19=Go For Yourself
TTITLE20=Want A Danish
TTITLE21=Here Comes Dumb George
TTITLE22=Chickee Coo
TTITLE23=Do It
TTITLE24=Hang On Groovy
TTITLE25=Goodbye George
TTITLE26=Dum Dum George
TTITLE27=Walk And Talk
TTITLE28=The Wobble
TTITLE29=Wobble And Ball
EXTD=
EXTT0=
EXTT1=
EXTT2=
EXTT3=
EXTT4=
EXTT5=
EXTT6=
EXTT7=
EXTT8=
EXTT9=
EXTT10=
EXTT11=
EXTT12=
EXTT13=
EXTT14=
EXTT15=
EXTT16=
EXTT17=
EXTT18=
EXTT19=
EXTT20=
EXTT21=
EXTT22=
EXTT23=
EXTT24=
EXTT25=
EXTT26=
EXTT27=
EXTT28=
EXTT29=
PLAYORDER=
